<svg width="291" height="253" viewBox="0 0 291 253" fill="none" xmlns="http://www.w3.org/2000/svg">
<path d="M189.997 126.736H208.934V162.339L239.739 180.14L230.27 196.553L189.997 173.323V126.736ZM202.622 101.486C185.88 101.486 169.824 108.137 157.985 119.975C146.147 131.813 139.497 147.87 139.497 164.611C139.497 181.353 146.147 197.409 157.985 209.247C169.824 221.086 185.88 227.736 202.622 227.736C219.363 227.736 235.419 221.086 247.258 209.247C259.096 197.409 265.747 181.353 265.747 164.611C265.747 147.87 259.096 131.813 247.258 119.975C235.419 108.137 219.363 101.486 202.622 101.486ZM202.622 76.2363C226.06 76.2363 248.539 85.5473 265.112 102.121C281.686 118.694 290.997 141.173 290.997 164.611C290.997 188.05 281.686 210.528 265.112 227.102C248.539 243.675 226.06 252.986 202.622 252.986C167.398 252.986 136.972 232.281 122.705 202.486H0.621582V164.611C0.621582 131.029 67.9128 114.111 101.622 114.111C109.197 114.111 118.539 114.995 128.387 116.636C136.393 104.229 147.384 94.0298 160.353 86.9716C173.323 79.9134 187.856 76.2223 202.622 76.2363ZM114.247 164.611C114.247 155.774 115.509 147.189 117.908 139.361C112.605 138.478 107.05 138.099 101.622 138.099C64.1253 138.099 24.6091 156.531 24.6091 164.611V178.499H115.383C114.639 173.907 114.259 169.263 114.247 164.611ZM101.622 0.486328C115.015 0.486328 127.86 5.80685 137.33 15.2774C146.801 24.748 152.122 37.5929 152.122 50.9863C152.122 64.3798 146.801 77.2246 137.33 86.6952C127.86 96.1658 115.015 101.486 101.622 101.486C88.2282 101.486 75.3833 96.1658 65.9127 86.6952C56.4421 77.2246 51.1216 64.3798 51.1216 50.9863C51.1216 37.5929 56.4421 24.748 65.9127 15.2774C75.3833 5.80685 88.2282 0.486328 101.622 0.486328ZM101.622 24.4738C94.59 24.4738 87.8465 27.2671 82.8744 32.2392C77.9024 37.2112 75.1091 43.9548 75.1091 50.9863C75.1091 58.0179 77.9024 64.7615 82.8744 69.7335C87.8465 74.7056 94.59 77.4988 101.622 77.4988C108.653 77.4988 115.397 74.7056 120.369 69.7335C125.341 64.7615 128.134 58.0179 128.134 50.9863C128.134 43.9548 125.341 37.2112 120.369 32.2392C115.397 27.2671 108.653 24.4738 101.622 24.4738Z" fill="#254568"/>
</svg>
